<?xml version="1.0" standalone="no"?>
<!DOCTYPE svg PUBLIC "-//W3C//DTD SVG 20010904//EN"
 "http://www.w3.org/TR/2001/REC-SVG-20010904/DTD/svg10.dtd">
<svg version="1.0" xmlns="http://www.w3.org/2000/svg"
 width="256.000000pt" height="256.000000pt" viewBox="0 0 256.000000 256.000000"
 preserveAspectRatio="xMidYMid meet">

<g transform="translate(0.000000,256.000000) scale(0.100000,-0.100000)"
fill="#000000" stroke="none">
<path d="M9 1997 c-7 -16 -8 -31 -2 -42 6 -9 288 -332 628 -716 530 -599 622
-699 645 -699 23 0 115 100 645 699 340 384 622 706 627 716 7 11 7 25 -1 42
-9 20 -17 24 -43 21 -29 -3 -95 -74 -625 -673 -326 -369 -597 -670 -603 -670
-5 0 -277 301 -602 670 -532 601 -597 670 -626 673 -26 3 -34 -1 -43 -21z"/>
</g>
</svg>
