<svg xmlns="http://www.w3.org/2000/svg" height="800" width="1200" viewBox="-24.0084 -6.175925 208.0728 37.05555"><defs><clipPath id="c"><path d="M0 0h612v792H0z"/></clipPath><clipPath id="b"><path d="M0 0h612v792H0z"/></clipPath><clipPath id="a"><path d="M0 0h612v792H0z"/></clipPath></defs><g clip-path="url(#a)" transform="matrix(2.21248 0 0 -2.21248 -484.5333 1385.0152)"><path d="M245.869 621.0563c.066.071 4.673 4.934 4.673 4.934h-4.364s-4.098-3.785-4.279-3.952v3.952h-4.102v-11.156h4.102v2.396c.035.031.782.687.86.756.072-.087 2.565-3.152 2.565-3.152h5.537s-4.931 6.147-4.992 6.222"/></g><path d="M150.5312 0v8.8145l-7.8498-.0088L142.668 0h-9.308v24.6449l9.361-.0045v-8.9561h7.7305v8.9561l9.6044.0045V0z"/><g clip-path="url(#b)" transform="matrix(2.21248 0 0 -2.21248 -484.5333 1385.0152)"><path d="M259.2177 622.5907v-4.464c0-.455-.329-.825-.733-.825h-2.369c-.405 0-.734.37-.734.825v4.464c0 .455.329.825.734.825h2.369c.404 0 .733-.37.733-.825m1.705 3.397h-7.267c-1.361 0-2.468-1.25-2.468-2.786v-5.548c0-1.539 1.107-2.789 2.468-2.789h7.267c1.36 0 2.468 1.25 2.468 2.789v5.548c0 1.536-1.108 2.786-2.468 2.786m16.382-4.0417v.846c.013.999-.354 1.999-.955 2.609-.379.383-.817.586-1.268.586h-7.611c-1.225 0-2.223-1.433-2.223-3.195v-4.741c0-1.76.998-3.192 2.223-3.192h7.611c1.226 0 2.223 1.432 2.223 3.192v1.284l-3.993-.009-.092-1.066c-.045-.456-.351-.944-.735-.944h-2.327c-.405 0-.734.36-.734.803v4.448c0 .443.329.803.734.803h2.327c.406 0 .735-.36.735-.803v-.621z"/></g><g clip-path="url(#c)" transform="matrix(2.21248 0 0 -2.21248 -484.5333 1385.0152)"><path d="M226.3596 625.9838h-7.36v-11.136l7.305.003s-1.725 5.518-1.734 5.546l1.789 5.587"/></g><path d="M22.048.0378l-7.405 12.3324 7.4052 12.2992H33.48V.0378z" fill="#0099d8"/></svg>